<svg xmlns="http://www.w3.org/2000/svg" xmlns:xlink="http://www.w3.org/1999/xlink" viewBox="0 0 109 164" fill="#fff" fill-rule="evenodd" stroke="#000" stroke-linecap="round" stroke-linejoin="round"><style><![CDATA[.B{stroke:none}.C{fill:#fdcc9b}.D{text-anchor:start}.E{font-weight:bold}]]></style><use xlink:href="#A" x=".5" y=".5"/><symbol id="A" overflow="visible"><g class="B"><path d="M53.976 162.5H0c0-11.329 28.431-27.989 53.976-27.989s53.976 16.66 53.976 27.989z" fill="#65cd76"/><path d="M53.976 134.511c-5.433 0-10.997.76-16.39 2.055.036.048 5.982 7.719 16.39 7.719 9.638 0 16.045-6.569 16.974-7.579-5.575-1.384-11.344-2.195-16.974-2.195z" fill="#00991a"/><path d="M92.952 80q9.5 0 9.5 9-1.5 13-13 12 0-21 3.5-21z" class="C"/></g><path d="M13.952 80q-9.5 0-9.5 9 1.5 13 13 12 0-21-3.5-21z" class="B C"/><g class="B"><path d="M97.07 62.318c0-18.214-13.328-31.543-43.093-31.543S10.883 44.103 10.883 62.318s-3.11 66.196 43.094 66.196S97.07 80.533 97.07 62.318z" class="C"/><path d="M25.524 70.315c2.206 1.103 5.748-3.748 13.856.472 1.478.769 2.36-6.58-6.331-6.58-7.525 0-8.858 5.442-7.525 6.108zm56.904 0c-2.206 1.103-5.748-3.748-13.855.472-1.478.769-2.36-6.58 6.331-6.58 7.524 0 8.857 5.442 7.524 6.108z" fill="#262626"/><path d="M52.827 101.375c-4.61 0-6.237-4.871-6.237-3.205s1.333 4.832 7.386 4.832 7.386-3.165 7.386-4.832-3.285 4.705-7.285 2.58z" fill="#fcbc85"/><path d="M28.822 82.976c0-2.831 1.479-5.109 3.315-5.109s3.315 2.279 3.315 5.109-1.479 5.109-3.315 5.109-3.315-2.279-3.315-5.109zm43.5-.585c0-2.831 1.478-5.109 3.315-5.109s3.315 2.279 3.315 5.109-1.479 5.109-3.315 5.109-3.315-2.279-3.315-5.109z" fill="#000"/><g fill="#646464"><circle cx="31.39" cy="81.438" r="1.438"/><circle cx="74.64" cy="81.188" r="1.438"/></g><path d="M53.462 117.13c-2.425 0-3.282-1.109-3.282-.73s.701 1.1 3.886 1.1 3.886-.721 3.886-1.1-1.728 1.071-3.833.587z" fill="#fcbc85"/><path d="M42.452 126.5v9.25q12 10 22.75-.25V127z" class="C"/></g><path d="M64.77 111.586a.84.84 0 0 0-.697-.019 25.76 25.76 0 0 1-9.552 1.933c-5.233 0-9.51-1.914-9.552-1.933-.21-.095-.502-.087-.697.019s-.239.283-.103.419c.142.143 3.532 3.496 10.353 3.496s10.212-3.352 10.353-3.496c.135-.137.092-.312-.103-.419" fill="#f7945e" class="B"/><g fill="#262626" class="B"><path d="M13.426 14.564l.194-.199-.194.199z"/><path d="M105.68 22.039s-2.303 6.718-4.565 5.286c0 0-.397-13.67-2.437-14.9 0 0-1.86 8.362-4.36 7.94 0 0 .505-10.615-2.216-12.661 0 0-7.328 10.585-10.028 4.454 0 0 .234-5.77 1.672-7.516-1.685 1.651-8.16 7.26-11.864-.879 0 0-6.375 2.633-7.524 4.461l-.205-5.098s-10.967 11.381-11.369-.86L41.838 8.952s-5.681-.422-.89-4.699L46.653 0S29.367.142 16.088 20.699c0 0-1.99 2.469-2.794-.653l-.155-.787c-.483-3.136-.004-4.296.282-4.703-1.339 1.447-9.939 11.942-5.898 40.771l5.073 36.52s5.934-4.873 4.239-33.825c0 0 2.837-24.876 36.886-11.299 0 0 25.064-11.733 37.274 5.435 0 0 3.54 20.813 1.191 37.525 0 0 .895 4.082 3.62 5.316 0 0 1.497-29.765 4.715-36.281.001 0 6.025-26.486 5.159-36.681z"/><path d="M83.746 4.645l.41-.422-.41.422z"/></g></symbol></svg>